<?xml version="1.0" standalone="no"?>
<!DOCTYPE svg PUBLIC "-//W3C//DTD SVG 20010904//EN"
 "http://www.w3.org/TR/2001/REC-SVG-20010904/DTD/svg10.dtd">
<svg version="1.0" xmlns="http://www.w3.org/2000/svg"
 width="950.000000pt" height="960.000000pt" viewBox="0 0 950.000000 960.000000"
 preserveAspectRatio="xMidYMid meet">

<g transform="translate(0.000000,960.000000) scale(0.100000,-0.100000)"
fill="#000000" stroke="none">
<path d="M4480 8887 c-3 -3 -36 -8 -75 -11 -38 -4 -87 -10 -107 -14 l-38 -7
25 -53 24 -52 43 7 c24 5 198 8 388 7 347 0 372 -2 615 -44 196 -34 510 -132
710 -221 143 -64 349 -172 435 -229 92 -61 215 -144 220 -150 3 -3 39 -32 80
-65 121 -97 138 -113 275 -250 200 -199 288 -307 429 -523 170 -259 286 -497
377 -773 70 -211 95 -318 139 -578 40 -235 35 -766 -10 -996 -6 -27 -19 -99
-31 -158 -42 -218 -121 -460 -227 -694 -61 -133 -152 -304 -204 -380 -15 -23
-28 -46 -28 -52 0 -6 16 -29 36 -51 l36 -39 44 66 c24 36 44 67 44 68 0 2 30
56 67 121 90 161 188 386 245 559 219 677 233 1363 43 2030 -31 108 -81 257
-104 310 -5 11 -15 36 -22 55 -51 140 -186 393 -318 595 -42 65 -199 274 -227
303 -7 7 -30 33 -51 59 -50 60 -206 216 -313 312 -461 413 -1116 722 -1710
807 -58 8 -125 20 -150 26 -45 11 -651 25 -660 15z"/>
<path d="M2932 8751 c-118 -66 -197 -157 -254 -293 -27 -65 -31 -84 -32 -184
-1 -106 0 -112 29 -160 73 -119 247 -127 322 -13 57 86 25 203 -72 265 -30 19
-68 37 -85 40 -47 10 -54 26 -32 76 39 86 113 162 217 224 18 10 18 11 0 42
-11 18 -24 32 -30 32 -5 0 -34 -13 -63 -29z"/>
<path d="M3486 8760 c-97 -49 -195 -148 -246 -250 -31 -61 -60 -181 -60 -248
0 -149 78 -241 203 -242 102 0 180 74 180 173 0 98 -58 167 -175 212 -41 15
-48 22 -48 45 0 31 64 134 106 170 16 13 52 40 79 58 28 19 52 35 53 37 7 7
-32 65 -43 65 -5 -1 -27 -9 -49 -20z"/>
<path d="M4433 8672 c-69 -7 -107 -22 -85 -36 5 -3 83 -1 173 5 429 28 868
-30 1259 -165 166 -58 186 -66 391 -168 378 -188 716 -454 994 -781 106 -125
235 -298 235 -316 0 -5 3 -11 8 -13 11 -5 132 -210 180 -304 84 -168 171 -398
236 -624 49 -173 87 -445 103 -742 6 -117 -21 -453 -48 -603 -41 -224 -58
-294 -111 -455 -83 -254 -205 -517 -316 -682 -15 -24 -22 -44 -17 -55 6 -17 8
-17 21 2 62 85 198 345 261 500 53 127 116 318 138 415 9 41 21 89 27 105 11
35 44 234 58 347 25 216 20 669 -10 803 -5 22 -14 74 -20 115 -26 171 -107
458 -177 630 -79 192 -260 538 -298 570 -8 7 -15 17 -15 22 0 14 -89 133 -240
322 -42 53 -296 302 -375 368 -383 318 -814 538 -1292 658 -65 16 -161 37
-213 46 -52 9 -117 20 -145 25 -63 11 -625 19 -722 11z"/>
<path d="M4785 8254 c-95 -20 -346 -68 -480 -93 -60 -12 -141 -28 -180 -36
-38 -8 -240 -48 -449 -89 l-378 -74 -101 -68 c-55 -37 -114 -82 -132 -100 -51
-51 -79 -119 -83 -202 -4 -73 10 -126 90 -352 11 -30 48 -138 83 -240 35 -102
97 -286 140 -410 42 -124 85 -251 96 -283 l19 -59 -32 -39 c-17 -21 -36 -39
-42 -39 -6 0 -29 33 -50 73 -22 39 -42 74 -45 77 -3 3 -22 28 -40 55 -19 28
-39 53 -44 56 -5 4 -4 8 3 11 8 2 3 19 -17 51 -17 25 -33 44 -37 40 -3 -3 -6
2 -7 13 0 10 -8 31 -17 46 -9 15 -41 67 -70 116 -51 84 -99 131 -122 117 -5
-3 -44 -10 -85 -14 -80 -9 -104 -25 -151 -96 -9 -14 -34 -35 -56 -46 -45 -23
-95 -87 -104 -134 -9 -52 12 -111 53 -142 66 -50 190 -27 244 46 12 16 43 41
70 56 53 28 62 45 26 45 -23 0 -30 21 -30 93 0 18 -5 27 -16 27 -21 0 -24 47
-3 55 9 3 23 -5 36 -22 12 -14 53 -60 91 -101 39 -41 69 -78 68 -83 -2 -4 5
-10 15 -13 10 -4 33 -22 52 -41 25 -26 31 -38 23 -46 -9 -9 -6 -17 9 -33 30
-32 98 -133 134 -200 l32 -58 -77 -102 c-171 -225 -271 -383 -366 -578 -36
-73 -65 -138 -65 -144 0 -32 -27 -32 -100 -3 -198 79 -351 159 -465 244 -138
102 -281 269 -256 299 9 10 3 34 -24 104 -19 50 -35 100 -35 110 0 12 17 30
43 47 23 15 51 35 62 45 11 9 41 25 67 34 85 31 152 131 134 198 -10 41 -46
88 -74 99 -43 17 -143 5 -185 -22 -20 -13 -37 -30 -37 -36 0 -7 -9 -13 -20
-13 -11 0 -20 -4 -20 -10 0 -5 -11 -10 -25 -10 -41 0 -89 -25 -116 -59 -13
-18 -39 -50 -58 -72 -48 -56 -41 -95 36 -202 33 -45 85 -119 117 -164 31 -46
63 -83 69 -83 7 0 31 -29 55 -64 128 -190 339 -342 667 -481 61 -26 114 -50
118 -54 4 -4 -2 -41 -13 -82 -30 -105 -38 -276 -16 -353 33 -112 95 -185 201
-238 85 -42 148 -51 311 -45 198 7 338 39 580 131 67 25 124 46 128 46 10 0
48 -39 86 -88 33 -44 33 -52 -5 -65 -16 -6 23 -81 63 -122 58 -60 129 -88 210
-83 67 4 133 29 382 146 36 17 112 51 170 76 58 26 114 51 124 57 18 10 136
65 446 204 319 144 402 190 495 276 87 80 126 227 92 349 -24 91 -148 484
-154 490 -2 3 -14 -6 -25 -20 -11 -14 -49 -56 -84 -94 -65 -69 -66 -71 -47
-123 3 -7 -19 -23 -54 -39 -94 -43 -95 -43 -244 -179 -78 -71 -158 -144 -177
-160 l-34 -31 45 -44 c51 -52 65 -104 46 -173 -14 -53 -76 -117 -115 -118
-101 -4 -151 36 -169 134 -4 20 -9 37 -11 37 -2 0 -43 -30 -91 -66 -88 -66
-338 -234 -402 -270 -18 -11 -43 -24 -55 -31 -20 -12 -21 -10 -33 65 -6 42
-12 84 -12 92 -1 9 26 32 62 53 340 205 799 568 1061 841 206 214 249 261 366
401 217 258 422 575 536 828 85 187 131 354 140 507 15 240 -68 387 -259 458
-112 42 -366 27 -566 -34 -105 -31 -295 -105 -375 -146 -32 -16 -63 -27 -70
-25 -6 3 -22 40 -35 83 -77 254 -92 284 -175 351 -35 28 -72 47 -111 58 -69
18 -77 18 -170 -1z m-341 -340 c18 -17 20 -42 7 -62 -4 -7 -48 -22 -97 -33
-49 -12 -114 -26 -144 -33 -196 -46 -202 -47 -226 -31 -26 17 -32 56 -11 73
15 12 384 98 434 101 12 0 29 -6 37 -15z m1499 -142 c75 -37 109 -77 138 -160
18 -48 20 -73 16 -162 -11 -223 -132 -499 -366 -835 -242 -349 -643 -757
-1051 -1072 -105 -81 -340 -240 -415 -282 l-40 -22 -72 69 c-40 38 -73 77 -73
87 0 9 -36 123 -81 253 -44 130 -105 309 -134 397 -30 88 -81 239 -115 335
-33 96 -74 213 -90 260 -16 47 -48 137 -71 200 -23 63 -50 142 -59 175 -10 33
-40 122 -67 197 -26 75 -45 139 -42 143 9 8 112 36 319 85 96 23 240 57 320
76 80 19 190 46 245 59 55 13 188 45 295 70 107 25 209 50 225 55 27 8 202 50
210 50 1 0 8 -21 15 -47 6 -26 42 -144 80 -263 88 -278 267 -857 276 -892 3
-16 10 -28 14 -28 13 0 160 200 160 217 0 23 -52 198 -110 373 -10 30 -30 93
-44 140 -14 47 -50 165 -81 263 -30 97 -55 181 -55 186 0 5 33 21 73 35 161
57 265 76 403 72 103 -2 117 -5 177 -34z m-3229 -1203 c20 -23 36 -45 36 -48
0 -4 -9 -15 -21 -24 -17 -15 -23 -16 -37 -5 -56 42 -70 74 -45 99 10 10 21 18
24 18 4 1 23 -18 43 -40z m91 -9 c3 -5 2 -10 -4 -10 -5 0 -13 5 -16 10 -3 6
-2 10 4 10 5 0 13 -4 16 -10z m-915 -330 c27 -54 33 -90 16 -90 -8 0 -18 5
-21 10 -3 6 -15 10 -26 10 -16 0 -18 4 -11 18 5 9 6 26 1 37 -4 11 -8 14 -8 8
-1 -7 -6 -13 -13 -13 -8 0 -7 6 4 16 12 12 14 23 7 46 -8 30 -8 30 12 12 12
-11 29 -35 39 -54z m1530 -3 c0 -1 45 -135 100 -297 55 -162 99 -299 97 -304
-5 -14 -81 83 -114 144 -16 30 -51 109 -78 175 -26 66 -56 137 -67 158 l-18
37 32 45 c27 37 48 55 48 42z m-87 -184 c13 -27 36 -79 50 -118 64 -165 145
-294 226 -357 45 -35 50 -44 90 -160 24 -68 47 -140 53 -160 6 -21 14 -38 19
-38 8 0 150 73 227 117 l42 24 43 -30 c45 -30 107 -90 107 -102 0 -17 -332
-177 -482 -233 l-96 -36 -74 31 c-113 47 -380 144 -545 197 l-83 27 0 50 c0
169 141 483 347 773 24 34 46 62 48 62 2 0 15 -21 28 -47z m-224 -968 c143
-50 364 -135 374 -144 14 -14 -103 -31 -209 -31 -121 0 -210 24 -268 72 -38
31 -86 113 -86 147 0 22 2 22 189 -44z m1249 -252 c6 -27 13 -67 15 -89 4 -37
2 -43 -22 -55 -14 -8 -28 -17 -31 -20 -3 -3 -49 -28 -103 -55 l-98 -49 -22 30
c-12 17 -37 46 -54 66 -18 20 -33 39 -33 43 0 3 57 35 128 70 70 36 141 74
157 85 44 29 52 26 63 -26z"/>
<path d="M2321 7893 c-144 -146 -210 -218 -291 -323 -19 -25 -37 -47 -40 -50
-23 -22 -188 -275 -240 -370 -109 -194 -170 -329 -252 -555 -57 -156 -117
-393 -143 -565 -9 -52 -21 -126 -28 -165 -13 -74 -17 -647 -6 -740 34 -270 41
-306 96 -524 174 -695 603 -1360 1172 -1816 303 -243 714 -467 1051 -573 134
-41 168 -51 305 -81 158 -34 332 -56 595 -75 41 -3 103 -8 137 -12 80 -7 468
13 593 31 224 32 566 125 736 200 62 27 61 20 8 86 l-21 27 -54 -20 c-168 -60
-328 -109 -429 -133 -63 -14 -135 -31 -160 -36 -175 -41 -564 -65 -786 -51
-491 33 -891 138 -1292 340 -201 101 -493 282 -552 342 -3 3 -23 19 -45 35
-142 106 -405 368 -526 525 -18 24 -39 49 -44 56 -23 24 -144 200 -194 282
-158 255 -327 655 -387 912 -78 334 -96 493 -94 829 1 396 48 694 161 1041
159 483 466 974 828 1323 50 48 91 92 91 98 0 16 -44 89 -54 89 -4 0 -65 -57
-135 -127z"/>
<path d="M2475 7755 c-272 -270 -464 -538 -637 -888 -101 -203 -163 -373 -219
-602 -11 -44 -24 -93 -29 -110 -5 -16 -16 -73 -25 -125 -9 -52 -21 -126 -28
-165 -16 -95 -15 -715 0 -815 47 -294 94 -479 185 -724 51 -138 176 -398 243
-506 19 -30 38 -62 41 -70 13 -26 115 -171 198 -280 103 -135 400 -432 541
-542 202 -156 381 -268 585 -364 63 -30 129 -61 145 -69 88 -42 307 -117 430
-147 44 -11 89 -22 100 -25 27 -7 213 -43 250 -48 324 -45 710 -42 1000 6 267
44 675 165 675 199 0 16 -9 13 -186 -46 -247 -82 -415 -118 -734 -154 -96 -11
-429 -11 -540 0 -332 33 -705 123 -940 227 -19 8 -51 22 -70 30 -62 26 -294
145 -348 179 -29 19 -55 34 -57 34 -7 0 -191 128 -265 184 -212 162 -447 401
-609 621 -44 61 -84 115 -89 120 -59 76 -243 417 -295 548 -80 201 -114 303
-152 457 -14 58 -30 121 -35 140 -5 19 -16 89 -25 155 -8 66 -19 145 -24 175
-13 79 -14 516 -2 591 6 35 15 107 21 159 55 489 282 1043 604 1475 84 113
154 193 279 321 74 77 108 118 105 130 -2 15 -23 -1 -93 -71z"/>
<path d="M6983 4862 c-25 -25 -52 -71 -77 -132 -46 -111 -63 -88 154 -202 85
-44 205 -107 266 -139 85 -45 114 -56 121 -47 25 33 87 199 91 243 5 67 -21
105 -113 162 -61 38 -76 43 -116 40 -42 -3 -48 -1 -62 23 -24 40 -124 90 -181
90 -40 0 -51 -5 -83 -38z m145 -102 c43 -26 54 -56 36 -99 -8 -19 -16 -37 -19
-39 -4 -4 -125 55 -139 68 -4 5 2 27 15 49 26 48 54 53 107 21z m260 -124 c51
-32 57 -52 32 -110 l-20 -47 -82 43 c-46 24 -85 44 -87 45 -6 4 21 67 38 86
20 24 64 18 119 -17z"/>
<path d="M2440 4692 c-14 -9 -130 -86 -257 -171 -128 -84 -233 -160 -233 -168
0 -19 85 -170 114 -204 45 -52 104 -63 161 -31 107 59 335 221 356 250 41 60
33 118 -31 240 -34 63 -60 102 -70 101 -8 0 -26 -8 -40 -17z m43 -167 c22 -46
21 -78 -2 -99 -47 -43 -308 -206 -326 -204 -10 2 -33 22 -49 46 l-30 42 24 18
c89 62 347 231 356 231 6 1 18 -15 27 -34z"/>
<path d="M5183 4603 c-46 -19 -83 -40 -83 -46 0 -22 72 -197 81 -197 5 0 49
16 99 36 63 25 90 41 90 53 0 9 -16 55 -35 101 -19 46 -35 86 -35 87 0 10 -46
-3 -117 -34z"/>
<path d="M6826 4557 c-15 -19 -26 -42 -25 -53 0 -13 62 -64 190 -159 226 -166
242 -181 234 -215 -8 -34 -31 -67 -54 -79 -18 -10 -60 15 -200 121 -20 15 -47
35 -61 45 -14 9 -39 29 -56 44 -35 29 -138 99 -147 99 -9 0 -47 -66 -47 -83 0
-13 383 -308 437 -336 12 -6 40 -11 62 -11 92 0 188 151 167 262 -9 47 -32 70
-201 196 -82 61 -154 115 -160 119 -5 5 -26 20 -45 33 -19 13 -41 30 -48 37
-18 17 -17 18 -46 -20z"/>
<path d="M2438 4149 c-131 -116 -238 -217 -238 -225 0 -23 173 -253 191 -253
18 -1 59 39 59 58 0 7 -25 47 -55 88 -30 42 -55 79 -55 83 0 9 120 120 129
120 3 0 26 -27 49 -60 24 -33 49 -60 56 -60 21 0 69 57 61 72 -5 7 -26 36 -47
65 -22 29 -37 56 -34 62 3 5 32 32 65 60 l59 51 56 -77 c59 -82 64 -97 42
-128 -13 -20 -45 -80 -167 -310 -34 -66 -69 -132 -78 -146 -14 -25 -13 -28 25
-72 21 -26 46 -46 55 -47 9 0 40 18 70 40 229 172 403 300 408 300 3 0 11 -11
18 -25 10 -23 2 -39 -114 -213 -114 -170 -128 -187 -154 -187 -21 0 -35 -8
-49 -30 -11 -16 -20 -33 -20 -37 0 -9 18 -27 59 -58 18 -14 44 -35 59 -47 15
-13 30 -23 34 -23 3 0 16 16 28 36 19 30 21 39 10 58 -11 21 -1 39 115 212 70
104 129 191 131 193 2 2 11 -2 20 -10 14 -12 19 -10 40 16 13 17 24 37 24 46
0 16 -120 129 -136 129 -5 0 -25 16 -45 36 l-37 36 -49 -35 c-26 -20 -75 -57
-108 -81 -181 -136 -239 -174 -208 -134 6 7 43 76 83 153 41 77 86 162 102
188 15 26 28 52 28 58 0 6 -13 27 -30 47 -16 20 -67 86 -112 146 -46 61 -87
111 -93 113 -5 2 -117 -92 -247 -208z"/>
<path d="M6592 4200 c-12 -16 -22 -37 -22 -47 1 -10 41 -58 90 -107 l88 -90
-41 -53 c-23 -29 -45 -53 -48 -53 -4 0 -46 41 -95 90 -48 50 -93 90 -99 90
-18 0 -67 -57 -63 -74 5 -23 437 -466 454 -466 18 0 63 50 64 70 0 9 -43 58
-95 110 -52 52 -95 97 -95 100 0 10 86 100 95 100 5 0 51 -44 102 -97 l93 -98
35 37 c19 21 35 41 35 45 0 17 -448 473 -464 473 -7 0 -22 -13 -34 -30z"/>
<path d="M6227 3808 c-34 -31 -36 -35 -27 -73 24 -105 49 -231 50 -242 0 -11
-130 81 -190 135 -31 28 -36 28 -77 -4 -38 -29 -40 -39 -15 -67 16 -19 16 -19
-8 -11 -52 18 -103 7 -190 -44 -66 -38 -84 -53 -82 -68 2 -10 28 -70 58 -133
30 -62 54 -115 54 -117 0 -4 15 -36 92 -204 14 -30 35 -76 46 -102 15 -34 27
-48 40 -48 25 0 72 37 72 57 0 8 -18 54 -40 101 -36 76 -39 88 -26 101 13 13
21 9 68 -30 29 -25 73 -60 96 -78 l44 -34 44 21 c24 12 44 28 44 37 0 8 -43
49 -95 91 -85 68 -94 78 -84 96 20 37 5 127 -36 213 -20 44 -44 88 -53 98 -37
41 2 17 141 -87 142 -107 150 -114 202 -201 30 -49 61 -94 69 -99 14 -10 69
25 80 51 2 6 -20 51 -51 100 -65 102 -72 124 -108 298 -43 205 -59 268 -71
272 -6 2 -27 -11 -47 -29z m-259 -455 c25 -53 39 -96 36 -108 -6 -24 -73 -70
-83 -58 -20 23 -101 215 -96 224 9 14 45 28 76 28 23 1 30 -9 67 -86z"/>
<path d="M3325 3632 c-47 -30 -56 -44 -169 -265 -111 -217 -121 -250 -92 -305
22 -42 76 -89 130 -112 78 -35 136 -13 181 67 32 58 32 75 -4 96 -43 25 -59
21 -78 -18 -28 -58 -92 -57 -124 2 -12 23 -6 38 75 201 101 202 120 232 146
232 27 0 80 -48 80 -73 0 -12 -11 -42 -25 -66 -32 -55 -31 -65 4 -90 43 -31
56 -26 86 27 72 129 52 216 -66 285 -62 36 -107 42 -144 19z"/>
<path d="M3629 3413 c-15 -37 -42 -113 -62 -168 -19 -55 -58 -163 -86 -241
-28 -77 -51 -148 -51 -158 0 -11 21 -26 63 -45 34 -16 93 -43 131 -60 37 -17
72 -31 78 -31 10 0 38 61 38 84 0 9 -35 29 -90 52 -49 20 -90 40 -90 44 0 5
39 124 55 167 3 9 18 7 57 -9 29 -12 57 -25 63 -30 19 -16 35 -7 50 29 9 20
13 43 10 51 -2 7 -34 26 -70 43 -36 16 -65 32 -65 35 0 14 54 155 60 159 5 3
37 -8 72 -24 103 -46 105 -46 122 -12 30 57 25 64 -98 119 -168 75 -157 76
-187 -5z"/>
<path d="M6715 3431 c-67 -31 -95 -78 -95 -159 0 -85 60 -158 162 -198 37 -15
68 -32 68 -38 0 -24 -51 -117 -82 -152 -18 -20 -61 -56 -95 -81 -35 -25 -63
-50 -63 -56 0 -7 9 -23 19 -36 l18 -23 51 26 c115 58 221 176 265 296 10 25
23 82 31 126 12 71 12 90 -1 145 -16 70 -48 120 -97 150 -41 25 -127 25 -181
0z"/>
<path d="M7248 3427 c-60 -36 -82 -72 -86 -141 -2 -49 2 -68 20 -100 31 -52
82 -92 148 -115 30 -11 56 -26 58 -34 10 -50 -107 -196 -201 -251 -26 -15 -47
-32 -47 -36 0 -5 10 -21 23 -36 l23 -26 45 22 c195 99 319 308 307 519 -5 95
-28 144 -86 188 -38 29 -51 33 -105 33 -47 0 -71 -6 -99 -23z"/>
<path d="M5560 3404 c-36 -14 -80 -32 -98 -40 -18 -8 -39 -14 -46 -14 -8 0
-19 -7 -26 -15 -9 -11 8 -77 87 -334 54 -176 104 -323 110 -325 7 -3 73 18
148 46 101 38 135 55 135 68 0 31 -22 80 -35 80 -7 0 -50 -14 -95 -31 -45 -17
-84 -28 -87 -25 -9 9 -53 147 -53 166 0 10 24 24 70 40 75 26 79 32 59 89 -13
37 -18 37 -94 11 -32 -11 -62 -20 -66 -20 -12 0 -61 162 -52 171 4 4 43 19 85
34 42 15 79 34 82 42 9 23 -21 83 -41 83 -10 -1 -47 -12 -83 -26z"/>
<path d="M4160 3282 c-56 -27 -74 -79 -109 -312 -41 -267 -40 -312 4 -356 42
-43 141 -58 183 -28 13 9 24 14 25 13 28 -54 61 -65 75 -27 12 30 46 262 46
313 l1 40 -80 17 c-110 24 -119 22 -126 -30 -6 -49 0 -57 55 -67 37 -8 38 -8
32 -44 -3 -20 -6 -43 -6 -52 0 -29 -50 -69 -85 -69 -54 0 -59 16 -41 122 9 51
25 154 36 228 11 74 25 139 30 144 15 15 81 8 102 -11 15 -13 18 -28 16 -72
l-3 -55 40 -7 c58 -10 65 1 65 92 0 76 -1 79 -34 112 -37 37 -110 67 -160 67
-17 -1 -47 -9 -66 -18z"/>
<path d="M5157 3283 c-16 -3 -31 -11 -33 -18 -3 -8 12 -108 35 -222 22 -114
50 -260 61 -323 12 -63 27 -120 33 -127 9 -10 33 -7 107 11 52 13 107 27 123
30 23 5 27 11 27 40 0 71 -13 77 -110 51 -30 -8 -58 -11 -63 -6 -4 4 -21 77
-37 162 -76 392 -80 410 -102 408 -7 -1 -26 -4 -41 -6z"/>
<path d="M4868 3242 c-22 -4 -23 -20 -3 -244 31 -349 41 -448 48 -454 8 -8
242 12 257 21 11 7 13 48 4 83 -6 21 -10 22 -66 16 -114 -13 -101 -26 -115
121 -6 72 -17 191 -23 265 -16 183 -19 195 -56 195 -16 0 -37 -1 -46 -3z"/>
<path d="M4566 3231 c-3 -5 -12 -37 -20 -72 -35 -158 -68 -305 -100 -442 -19
-81 -33 -154 -30 -162 7 -18 73 -30 88 -15 6 6 18 39 26 73 l16 62 71 3 70 3
12 -63 c7 -35 15 -69 17 -75 5 -18 104 -18 104 0 0 8 -11 76 -25 153 -56 306
-74 402 -85 465 l-12 67 -45 6 c-62 8 -81 8 -87 -3z m83 -335 l18 -106 -44 0
c-28 0 -43 4 -43 13 0 21 45 218 48 209 1 -5 11 -57 21 -116z"/>
<path d="M2142 1658 l3 -183 63 1 c51 1 68 5 85 23 20 20 22 31 22 157 l0 136
-28 24 c-23 20 -39 24 -88 24 l-59 0 2 -182z m118 3 c0 -110 -7 -131 -42 -131
-16 0 -18 11 -18 124 0 110 2 125 18 128 35 9 42 -11 42 -121z"/>
<path d="M2352 1658 l3 -183 72 -3 c65 -3 72 -2 78 17 10 32 -2 41 -51 41
l-44 0 0 50 0 50 40 0 c36 0 40 3 40 25 0 23 -4 25 -40 25 l-40 0 0 50 c0 52
2 54 55 51 31 -2 48 14 40 38 -6 19 -14 21 -81 21 l-74 0 2 -182z"/>
<path d="M2530 1817 c0 -31 50 -330 57 -337 7 -8 73 -9 77 -1 4 6 13 60 46
267 14 88 14 94 -14 94 -22 0 -26 -6 -35 -52 -5 -29 -13 -80 -16 -113 -12
-110 -17 -117 -31 -35 -7 41 -16 103 -20 138 -6 60 -7 62 -35 62 -24 0 -29 -4
-29 -23z"/>
<path d="M2752 1658 c3 -181 3 -183 26 -186 l22 -3 0 185 0 186 -25 0 -25 0 2
-182z"/>
<path d="M2869 1821 c-23 -18 -24 -26 -27 -152 -3 -91 0 -139 9 -155 24 -46
115 -53 144 -10 8 11 15 40 15 63 0 39 -2 43 -25 43 -14 0 -26 -6 -26 -12 -1
-7 -3 -20 -4 -28 -1 -8 -3 -21 -4 -28 0 -8 -10 -12 -23 -10 -22 3 -23 7 -26
126 -2 107 0 123 14 129 21 8 44 -21 44 -54 0 -18 6 -23 25 -23 23 0 25 4 25
40 0 77 -83 118 -141 71z"/>
<path d="M3048 1660 c-2 -114 1 -181 7 -183 6 -2 39 -3 75 -3 63 1 65 2 68 28
3 26 1 27 -45 30 l-48 3 0 45 c0 45 0 45 38 48 32 3 37 7 37 28 0 21 -4 24
-40 24 l-40 0 0 50 c0 37 4 50 15 51 8 1 20 3 25 4 6 1 21 3 35 4 20 1 25 6
25 26 0 24 -2 25 -75 25 l-74 0 -3 -180z"/>
<path d="M3252 1817 c-16 -17 -22 -36 -22 -71 0 -43 4 -52 50 -100 38 -41 50
-60 50 -84 0 -27 -4 -32 -24 -32 -19 0 -25 6 -28 28 -2 21 -8 27 -28 27 -22
-1 -25 -5 -23 -33 4 -89 124 -110 158 -28 20 47 5 90 -55 155 -52 57 -60 80
-35 101 12 10 18 10 30 0 8 -7 15 -19 15 -26 0 -9 11 -14 28 -14 26 0 28 3 24
30 -9 64 -97 93 -140 47z"/>
<path d="M3492 1813 c2 -22 9 -29 31 -31 l27 -3 0 -149 c0 -142 1 -149 21
-155 12 -4 25 -3 30 2 5 5 10 76 11 158 3 125 6 150 18 151 38 2 41 5 38 27
-3 21 -8 22 -91 25 l-88 3 3 -28z"/>
<path d="M3723 1830 c-32 -13 -45 -76 -41 -201 2 -86 7 -111 21 -127 38 -42
124 -34 146 14 15 33 15 249 -1 277 -23 45 -71 59 -125 37z m66 -54 c8 -9 11
-52 9 -127 -3 -110 -4 -114 -25 -117 -19 -3 -23 1 -23 25 0 15 -2 64 -5 107
-2 44 -2 90 1 103 7 26 26 30 43 9z"/>
<path d="M3972 1658 c3 -175 4 -183 23 -183 18 0 20 8 25 105 5 111 9 107 30
-27 7 -40 15 -75 19 -77 4 -3 17 -3 29 0 17 5 22 18 32 77 6 40 15 86 20 102
9 29 9 29 8 -10 0 -22 0 -71 1 -108 1 -65 2 -68 24 -65 22 3 22 5 25 186 l2
182 -39 0 -39 0 -12 -72 c-7 -40 -16 -95 -19 -123 l-7 -50 -12 70 c-7 39 -17
94 -23 123 l-10 52 -40 0 -39 0 2 -182z"/>
<path d="M4290 1832 c0 -5 -9 -61 -19 -123 -11 -63 -23 -142 -27 -175 -6 -60
-6 -61 17 -60 17 1 26 9 33 34 8 29 13 33 40 30 26 -2 32 -8 36 -33 4 -24 11
-31 33 -33 l29 -3 -8 58 c-4 32 -16 114 -28 183 l-21 125 -42 3 c-24 2 -43 -1
-43 -6z m54 -138 c11 -85 8 -104 -15 -104 -20 0 -21 4 -15 46 3 26 6 60 6 75
0 46 17 33 24 -17z"/>
<path d="M4422 1813 c2 -22 8 -28 28 -28 l25 0 5 -155 5 -155 25 0 25 0 5 155
5 155 25 0 c20 0 25 5 25 25 0 25 -2 25 -88 28 l-88 3 3 -28z"/>
<path d="M4660 1834 c-28 -8 -43 -48 -48 -126 -6 -98 5 -182 26 -208 9 -11 33
-23 53 -26 52 -9 89 26 96 89 6 47 6 47 -25 47 -28 0 -31 -3 -34 -37 -2 -30
-7 -39 -25 -41 -30 -4 -35 18 -31 142 2 80 6 101 20 110 21 13 28 6 37 -36 7
-34 34 -49 53 -30 16 16 0 79 -24 102 -20 19 -59 24 -98 14z"/>
<path d="M4822 1658 l3 -183 25 0 c24 0 25 3 27 70 1 39 2 73 3 78 0 4 14 7
30 7 l30 0 0 -81 0 -80 28 3 27 3 3 183 2 182 -30 0 -30 0 0 -80 0 -80 -35 0
-35 0 0 80 c0 79 0 80 -25 80 l-25 0 2 -182z"/>
<path d="M5110 1827 c0 -6 12 -53 26 -102 14 -50 29 -126 33 -170 6 -78 7 -80
34 -83 27 -3 27 -3 27 56 0 49 24 154 66 295 5 15 1 18 -22 15 -25 -3 -29 -9
-48 -78 l-20 -74 -19 64 c-10 36 -20 71 -22 78 -6 16 -55 16 -55 -1z"/>
<path d="M5339 1821 c-23 -18 -24 -26 -27 -158 -2 -125 0 -140 18 -161 15 -19
30 -24 67 -24 76 0 83 16 83 182 0 138 0 139 -26 159 -33 26 -84 27 -115 2z
m79 -164 l3 -128 -23 3 c-22 3 -23 7 -26 117 -3 127 0 144 25 139 16 -3 18
-19 21 -131z"/>
<path d="M5517 1826 c-3 -7 -5 -79 -4 -159 2 -165 9 -182 78 -193 29 -5 41 -1
65 19 l29 25 3 161 3 161 -30 0 -30 0 -3 -152 c-3 -150 -3 -153 -25 -156 -18
-3 -23 2 -24 20 -1 13 -3 32 -4 43 -1 11 -2 71 -3 133 -2 111 -2 112 -26 112
-13 0 -26 -6 -29 -14z"/>
<path d="M5722 1658 l3 -183 28 -3 27 -3 0 76 c0 73 1 76 23 73 19 -3 23 -10
27 -63 6 -71 14 -86 43 -81 19 2 22 10 25 59 2 38 -3 69 -14 93 -13 26 -14 38
-5 47 6 6 11 37 11 68 0 76 -25 99 -112 99 l-58 0 2 -182z m109 113 c9 -73 4
-91 -27 -91 -22 0 -24 4 -24 48 0 27 3 51 6 54 6 7 44 -2 45 -11z"/>
<path d="M6010 1660 c0 -112 4 -181 10 -181 34 -6 35 -3 40 116 l5 120 29
-112 c15 -62 34 -117 40 -122 7 -6 22 -8 34 -4 22 5 22 8 22 184 l0 179 -25 0
c-24 0 -24 -1 -27 -97 l-3 -98 -13 45 c-7 25 -20 69 -28 98 -14 50 -16 52 -49
52 l-35 0 0 -180z"/>
<path d="M6230 1661 c0 -204 -7 -191 98 -191 51 0 52 0 52 30 0 29 -2 30 -45
30 l-45 0 0 49 0 50 38 3 c30 2 38 7 40 26 3 20 -1 22 -37 22 l-41 0 0 56 c0
51 1 55 21 49 36 -12 69 3 69 30 0 24 -2 25 -75 25 l-75 0 0 -179z"/>
<path d="M6419 1678 c-1 -90 -2 -170 -3 -178 -2 -24 15 -30 87 -30 l67 0 0 30
c0 29 -2 30 -44 30 -44 0 -44 0 -48 39 -5 55 -1 61 38 61 30 0 34 3 34 25 0
22 -4 25 -34 25 -33 0 -34 1 -38 46 -2 25 -1 49 2 53 3 3 24 6 48 6 40 -2 42
0 42 27 l0 28 -75 0 -75 0 -1 -162z"/>
<path d="M6610 1661 c0 -177 0 -179 23 -185 35 -9 100 5 125 27 21 19 22 28
22 154 0 129 -1 135 -25 158 -20 21 -34 25 -85 25 l-60 0 0 -179z m108 -5 l-3
-121 -27 -3 -28 -3 0 124 c0 68 2 126 5 129 3 3 17 3 31 0 l25 -4 -3 -122z"/>
<path d="M6835 1818 c-25 -19 -27 -26 -23 -73 4 -45 10 -59 49 -99 50 -54 64
-78 56 -100 -11 -28 -44 -19 -50 14 -5 24 -12 30 -32 30 -22 0 -25 -4 -25 -34
0 -42 26 -74 65 -81 46 -8 83 12 94 51 15 53 -2 98 -53 150 -39 39 -47 52 -44
78 2 23 8 31 23 31 13 0 21 -8 23 -22 2 -17 10 -23 27 -23 28 0 35 16 22 53
-17 51 -83 63 -132 25z"/>
<path d="M2000 1655 c0 -23 3 -25 50 -25 47 0 50 2 50 25 0 23 -3 25 -50 25
-47 0 -50 -2 -50 -25z"/>
<path d="M7000 1655 c0 -24 3 -25 55 -25 52 0 55 1 55 25 0 24 -3 25 -55 25
-52 0 -55 -1 -55 -25z"/>
</g>
</svg>
